<svg id="Layer_1" data-name="Layer 1" xmlns="http://www.w3.org/2000/svg" viewBox="0 0 20 20"><defs><style>.cls-1{fill:#fdd300;}.cls-2{fill:#fff;}</style></defs><title>icon 01</title><rect class="cls-1" width="20" height="20" rx="10"/><path class="cls-2" d="M10.61,15.26H6V4.74H10.1A5.92,5.92,0,0,1,11.94,5a2.64,2.64,0,0,1,1.17.69,2.71,2.71,0,0,1,.7,1.84A2.14,2.14,0,0,1,13,9.36a3.84,3.84,0,0,1-.38.27l-.38.17a2.7,2.7,0,0,1,1.56.88,2.42,2.42,0,0,1,.58,1.66,2.83,2.83,0,0,1-.75,1.94A3.93,3.93,0,0,1,10.61,15.26ZM8.36,9H9.47a3.79,3.79,0,0,0,1.45-.21.88.88,0,0,0,.47-.91A.93.93,0,0,0,11,7a3.45,3.45,0,0,0-1.48-.23H8.36Zm0,4.27H10A3.43,3.43,0,0,0,11.47,13a1,1,0,0,0,.51-1,1,1,0,0,0-.54-1,4.65,4.65,0,0,0-1.7-.23H8.36Z"/></svg>